P2
4 8
255
177 192 138 180
198 219 198 135
56 156 195 192
162 34 156 210
85 207 180 210
141 165 135 138
126 219 95 62
45 189 180 186